<?xml version="1.0" encoding="UTF-8"?>
<svg version="1.1" xmlns="http://www.w3.org/2000/svg" width="327" height="379">
<path d="M0 0 C107.91 0 215.82 0 327 0 C327 125.07 327 250.14 327 379 C219.09 379 111.18 379 0 379 C0 253.93 0 128.86 0 0 Z " fill="#1F2020" transform="translate(0,0)"/>
<path d="M0 0 C2.78717162 2.29167444 5.26318665 4.76318665 7.8125 7.3125 C9.97870544 8.60769995 9.97870544 8.60769995 11.8125 9.3125 C11.8125 9.9725 11.8125 10.6325 11.8125 11.3125 C12.328125 11.539375 12.84375 11.76625 13.375 12 C16.16204731 13.50071778 18.60083948 15.29394856 21.12890625 17.19140625 C22.93136765 18.49801179 22.93136765 18.49801179 25.8125 19.3125 C26.96864004 20.47709445 28.12201749 21.64459824 29.25927734 22.82763672 C32.42858263 25.8574567 36.07657441 28.31272321 39.625 30.875 C41.34028302 32.12569986 43.05512014 33.37701147 44.76953125 34.62890625 C45.62240723 35.25039551 46.4752832 35.87188477 47.35400391 36.51220703 C50.86322001 39.08191503 54.33966578 41.69394585 57.8125 44.3125 C64.38776274 49.26338336 71.0118136 54.1453572 77.65161133 59.00927734 C81.64374281 61.94305249 85.60459877 64.90794585 89.515625 67.94921875 C90.27045166 68.53517822 91.02527832 69.1211377 91.80297852 69.72485352 C93.21715177 70.82724549 94.62688193 71.93537341 96.03100586 73.05053711 C99.92192016 76.08384225 103.69794852 78.40192392 108.23950195 80.35107422 C109.8125 81.3125 109.8125 81.3125 110.8125 84.3125 C112.82758358 85.04573796 112.82758358 85.04573796 114.8125 85.3125 C114.8125 85.9725 114.8125 86.6325 114.8125 87.3125 C115.52277344 87.54453125 116.23304688 87.7765625 116.96484375 88.015625 C120.36859668 89.56575665 122.62215167 91.53554604 125.375 94.0625 C126.30441406 94.90296875 127.23382813 95.7434375 128.19140625 96.609375 C131.4858058 100.00687796 134.39014465 103.13088494 135.30859375 107.875 C135.15404921 114.30405268 134.15477686 118.50176776 129.9375 123.5625 C127.8125 125.3125 127.8125 125.3125 125.58984375 126.1328125 C122.11696354 127.6079318 119.26195962 129.70607742 116.25 131.9375 C111.76740975 135.20282243 107.25941602 138.38822366 102.625 141.4375 C98.84302166 143.93220867 95.14628979 146.49849573 91.5 149.1875 C86.48643952 152.882086 81.33653875 156.33438119 76.11401367 159.72412109 C73.16270511 161.65895135 70.36129921 163.63284778 67.67578125 165.92578125 C65.12252102 168.05407866 62.67978323 169.65761739 59.8125 171.3125 C57.63148652 172.75391237 55.46699368 174.20784773 53.3125 175.6875 C52.75691406 176.06132812 52.20132813 176.43515625 51.62890625 176.8203125 C48.88972451 178.70229149 46.54141965 180.59092891 44.21875 182.9765625 C41.69791022 185.42374138 40.03664143 186.07025727 36.8125 187.3125 C34.22512799 188.98694132 31.77436548 190.83500717 29.3125 192.6875 C28.33603516 193.41066406 28.33603516 193.41066406 27.33984375 194.1484375 C24.49352579 196.26448803 21.70299832 198.40304946 18.96875 200.6640625 C16.8125 202.3125 16.8125 202.3125 14.8125 202.3125 C14.8125 202.9725 14.8125 203.6325 14.8125 204.3125 C12.80078125 205.6796875 12.80078125 205.6796875 10.125 207.1875 C7.2183748 208.8659737 4.62682076 210.4610434 2 212.5625 C-2.16060457 215.89098366 -5.85199993 216.7357406 -11.203125 216.5546875 C-15.17519515 216.06990728 -17.99170377 214.67958596 -20.6328125 211.66015625 C-24.55844975 206.3549379 -25.33560074 202.18578255 -25.32794189 195.62712097 C-25.33091302 194.83658193 -25.33388414 194.0460429 -25.3369453 193.23154813 C-25.34563966 190.57386976 -25.34714116 187.9162364 -25.34863281 185.25854492 C-25.35326046 183.3565308 -25.35828504 181.4545176 -25.36367798 179.55250549 C-25.37680895 174.37889191 -25.38324827 169.2052913 -25.38768864 164.03166366 C-25.39061817 160.80050401 -25.39472274 157.56934793 -25.39919281 154.33819008 C-25.41286942 144.23184799 -25.42253534 134.12551402 -25.4263947 124.01916331 C-25.43087635 112.34686772 -25.44842855 100.67468918 -25.4773953 89.00242919 C-25.4990002 79.9840881 -25.50909834 70.96577997 -25.51043582 61.94741327 C-25.51148468 56.5592943 -25.51740974 51.17128534 -25.53525543 45.78319359 C-25.55171553 40.7147858 -25.55390162 35.64657095 -25.54511642 30.57814598 C-25.54434495 28.71815474 -25.54870325 26.85815322 -25.55857468 24.99818802 C-25.57126447 22.45817158 -25.56543369 19.91884155 -25.55499268 17.37882996 C-25.56304908 16.64350939 -25.57110548 15.90818883 -25.57940602 15.15058583 C-25.53451126 10.47791227 -24.56169616 7.32436233 -22.1875 3.3125 C-21.5275 3.3125 -20.8675 3.3125 -20.1875 3.3125 C-20.1875 2.6525 -20.1875 1.9925 -20.1875 1.3125 C-14.4138602 -2.5365932 -6.15859485 -3.26043257 0 0 Z " fill="#F03080" transform="translate(86.1875,110.6875)"/>
<path d="M0 0 C1.21042969 -0.00128906 2.42085937 -0.00257812 3.66796875 -0.00390625 C4.94285156 -0.00003906 6.21773437 0.00382812 7.53125 0.0078125 C9.44357422 0.00201172 9.44357422 0.00201172 11.39453125 -0.00390625 C13.21017578 -0.00197266 13.21017578 -0.00197266 15.0625 0 C16.18205078 0.00112793 17.30160156 0.00225586 18.45507812 0.00341797 C21.03125 0.1328125 21.03125 0.1328125 22.03125 1.1328125 C22.15003764 3.20478434 22.19765755 5.28084313 22.21879578 7.35610962 C22.22670586 8.01356057 22.23461594 8.67101151 22.24276572 9.34838521 C22.26797501 11.56768343 22.2857895 13.78697752 22.3034668 16.00634766 C22.31954399 17.59117938 22.33592372 19.17600805 22.35258484 20.76083374 C22.49739246 35.24633782 22.57235553 49.73271078 22.63150311 64.21879005 C22.67607783 74.92995467 22.75320435 85.63983902 22.87308758 96.35043108 C22.95450111 103.8774387 22.99764216 111.4040955 23.01280528 118.93152463 C23.02297361 123.42889043 23.05027885 127.92464534 23.11911583 132.42152786 C23.18321572 136.65579315 23.19990243 140.88763717 23.18062019 145.12231827 C23.18177239 146.6739965 23.19998526 148.22577294 23.236763 149.77701569 C23.49956848 161.46797421 23.49956848 161.46797421 19.90348244 165.54536057 C17.34898123 167.36835521 14.85301703 168.76864503 12.03125 170.1328125 C7.5848478 172.72594145 3.48284 175.66302835 -0.6640625 178.70703125 C-2.96875 180.1328125 -2.96875 180.1328125 -5.96875 180.1328125 C-6.04332894 175.56131493 -6.09755276 170.99017741 -6.13354492 166.41821289 C-6.14856105 164.8654157 -6.16898028 163.31266041 -6.19506836 161.76000977 C-6.23177073 159.51828626 -6.24854787 157.27712711 -6.26171875 155.03515625 C-6.27720261 154.34945053 -6.29268646 153.66374481 -6.30863953 152.95726013 C-6.31038446 147.87356205 -5.08484348 144.63344886 -2.96875 140.1328125 C-2.46540159 136.90532012 -2.46540159 136.90532012 -2.53125 133.6953125 C-2.50224609 132.11943359 -2.50224609 132.11943359 -2.47265625 130.51171875 C-2.93883879 127.33653846 -3.39170675 126.26549685 -4.97038269 123.65440369 C-7.6915693 118.33417535 -7.50882241 113.28062256 -7.4387207 107.40844727 C-7.4409111 106.25796402 -7.4431015 105.10748077 -7.44535828 103.9221344 C-7.44766025 100.13919845 -7.42147086 96.35705022 -7.39453125 92.57421875 C-7.38960631 89.94246162 -7.3863081 87.31070098 -7.38456726 84.67893982 C-7.37813761 79.17558548 -7.35694916 73.6724549 -7.32543945 68.16918945 C-7.28500774 61.09821687 -7.26772838 54.02738923 -7.25813007 46.95631504 C-7.24895644 40.22475924 -7.22828284 33.49324624 -7.20703125 26.76171875 C-7.2036355 25.46990755 -7.20023975 24.17809635 -7.1967411 22.84713936 C-7.18522769 19.21518021 -7.16671986 15.58333136 -7.14575195 11.95141602 C-7.14306305 10.8641925 -7.14037415 9.77696899 -7.13760376 8.65679932 C-7.13044846 7.67411575 -7.12329315 6.69143219 -7.11592102 5.67897034 C-7.11164754 4.8201101 -7.10737406 3.96124987 -7.10297108 3.07636356 C-6.81121019 -1.14839903 -3.51839304 0.00354473 0 0 Z " fill="#1297DF" transform="translate(234.96875,85.8671875)"/>
<path d="M0 0 C7.26 0 14.52 0 22 0 C22.20342626 13.17819651 22.36849888 26.35534849 22.46630955 39.53476048 C22.51325691 45.6547083 22.57692083 51.7735253 22.67895508 57.89282227 C22.77683067 63.79975916 22.83057609 69.70560935 22.85389519 75.6132946 C22.87050999 77.86567227 22.90295681 80.11799119 22.95157051 82.36990547 C23.01703988 85.52858497 23.02589768 88.68279092 23.02172852 91.84204102 C23.054086 92.77064941 23.08644348 93.69925781 23.11978149 94.65600586 C23.06180969 98.72259724 22.87728425 101.05741517 20.04070854 104.10513115 C17.76321948 105.89718321 15.46287707 107.47583961 13 109 C11.93910156 109.73089844 10.87820313 110.46179688 9.78515625 111.21484375 C8.88667969 111.78332031 7.98820312 112.35179687 7.0625 112.9375 C6.14597656 113.52402344 5.22945313 114.11054688 4.28515625 114.71484375 C2 116 2 116 0 116 C0 77.72 0 39.44 0 0 Z " fill="#10A5E6" transform="translate(270,123)"/>
<path d="M0 0 C1.12019531 -0.00128906 2.24039063 -0.00257812 3.39453125 -0.00390625 C4.57402344 -0.00003906 5.75351563 0.00382812 6.96875 0.0078125 C8.73798828 0.00201172 8.73798828 0.00201172 10.54296875 -0.00390625 C12.22326172 -0.00197266 12.22326172 -0.00197266 13.9375 0 C14.97326172 0.00112793 16.00902344 0.00225586 17.07617188 0.00341797 C19.46875 0.1328125 19.46875 0.1328125 20.46875 1.1328125 C20.56371708 3.53629536 20.59433862 5.91092232 20.58227539 8.31469727 C20.58242142 9.06586823 20.58256744 9.81703918 20.5827179 10.5909729 C20.58201863 13.08541709 20.57422564 15.57978753 20.56640625 18.07421875 C20.56454212 19.79914814 20.56311819 21.52407807 20.56211853 23.24900818 C20.55829297 27.79793753 20.54846238 32.34683517 20.53741455 36.89575195 C20.52720124 41.53401256 20.52262108 46.17227827 20.51757812 50.81054688 C20.50684014 59.91798272 20.48976327 69.02539498 20.46875 78.1328125 C17.01399714 77.36367756 14.9100554 76.21379155 12.0625 74.078125 C10.82306641 73.15580078 10.82306641 73.15580078 9.55859375 72.21484375 C8.70394531 71.56902344 7.84929687 70.92320312 6.96875 70.2578125 C6.11410156 69.61972656 5.25945312 68.98164063 4.37890625 68.32421875 C2.07103382 66.59961517 -0.23095624 64.86750338 -2.53125 63.1328125 C-3.2255864 62.72301147 -3.91992279 62.31321045 -4.63529968 61.89099121 C-6.53125 60.1328125 -6.53125 60.1328125 -7.01899719 57.53890991 C-7.01313095 56.50045929 -7.00726471 55.46200867 -7.0012207 54.39208984 C-7.00414627 53.21431976 -7.00707184 52.03654968 -7.01008606 50.8230896 C-6.99257797 49.55115753 -6.97506989 48.27922546 -6.95703125 46.96875 C-6.95374313 45.66579987 -6.95045502 44.36284973 -6.94706726 43.02041626 C-6.93943006 40.26468483 -6.91887597 37.50947335 -6.88793945 34.75390625 C-6.84828684 31.21503775 -6.8303185 27.67650699 -6.82063007 24.13744164 C-6.8106764 20.76865551 -6.7904312 17.39998753 -6.76953125 14.03125 C-6.75845085 12.11727921 -6.75845085 12.11727921 -6.74714661 10.16464233 C-6.73431137 8.99317657 -6.72147614 7.82171082 -6.70825195 6.61474609 C-6.69840775 5.57788666 -6.68856354 4.54102722 -6.67842102 3.4727478 C-6.39799158 -0.98592042 -3.90101038 0.00424814 0 0 Z " fill="#149AE2" transform="translate(195.53125,114.8671875)"/>
<path d="M0 0 C0.33 0 0.66 0 1 0 C1.90592845 6.92001929 2.13195895 13.66302648 2.09765625 20.63720703 C2.09619598 21.76890823 2.09473572 22.90060944 2.0932312 24.06660461 C2.08943909 26.51532556 2.08333728 28.96404381 2.07516479 31.41275406 C2.06229461 35.32016802 2.05585623 39.22754757 2.05102539 43.13497925 C2.03903562 52.16310511 2.01722683 61.19120192 1.99479675 70.21930695 C1.96949881 80.41963721 1.94859948 90.61995603 1.9375 100.8203125 C1.93602085 102.129076 1.9345417 103.43783951 1.93301773 104.78626251 C1.9201974 122.6388023 2.10617942 140.44537921 2.89584351 158.28152466 C3.35360203 170.22898195 2.98383934 182.0885166 2 194 C2.66 194.33 3.32 194.66 4 195 C3.505 196.98 3.505 196.98 3 199 C4.65 199.33 6.3 199.66 8 200 C8.04125 200.598125 8.0825 201.19625 8.125 201.8125 C8.87739901 204.35100832 8.87739901 204.35100832 12.0625 205.75 C13.5165625 206.36875 13.5165625 206.36875 15 207 C15.33 206.34 15.66 205.68 16 205 C17.78515625 204.32421875 17.78515625 204.32421875 20.0625 203.6875 C24.28174197 202.37946791 27.54622382 200.50971494 31.203125 198.07421875 C33.41164602 196.75390727 35.44629558 196.23940979 38 196 C38 195.34 38 194.68 38 194 C38.66 194 39.32 194 40 194 C40 193.01 40 192.02 40 191 C41.32 191.33 42.64 191.66 44 192 C42.625 193.5 42.625 193.5 41 195 C40.34 195 39.68 195 39 195 C39 195.66 39 196.32 39 197 C36.98828125 198.3671875 36.98828125 198.3671875 34.3125 199.875 C31.4058748 201.5534737 28.81432076 203.1485434 26.1875 205.25 C22.02689543 208.57848366 18.33550007 209.4232406 12.984375 209.2421875 C9.01230485 208.75740728 6.19579623 207.36708596 3.5546875 204.34765625 C-0.37945815 199.03093942 -1.14667041 194.86026158 -1.12698364 188.28770447 C-1.12854363 187.49434317 -1.13010362 186.70098187 -1.13171089 185.88357931 C-1.13570985 183.21655695 -1.1325355 180.54959118 -1.12939453 177.88256836 C-1.13074905 175.9740648 -1.13252927 174.06556151 -1.13470459 172.15705872 C-1.13927259 166.96717845 -1.13749203 161.77731801 -1.1343255 156.58743739 C-1.13179902 151.16445661 -1.13414022 145.74147755 -1.13571167 140.3184967 C-1.13753236 131.2115956 -1.13512951 122.10470261 -1.13037109 112.99780273 C-1.12492704 102.45670642 -1.12669258 91.91562944 -1.1321975 81.37453359 C-1.13672953 72.3358738 -1.13737878 63.29721985 -1.13475883 54.25855929 C-1.13319676 48.85496075 -1.13300041 43.45137132 -1.13629532 38.04777336 C-1.13917539 32.96957808 -1.13719582 27.89140782 -1.13140106 22.81321526 C-1.13007427 20.9450993 -1.13046622 19.07698125 -1.13266373 17.20886612 C-1.13537832 14.66765254 -1.13199028 12.12652023 -1.12698364 9.58531189 C-1.13032973 8.464854 -1.13032973 8.464854 -1.13374341 7.32176059 C-1.11415018 2.22830036 -1.11415018 2.22830036 0 0 Z " fill="#C61C6F" transform="translate(62,118)"/>
<path d="M0 0 C0.33 0 0.66 0 1 0 C1.00808685 1.12291946 1.01617371 2.24583893 1.02450562 3.40278625 C1.10251647 14.06616659 1.19038624 24.72942787 1.28752708 35.39265156 C1.33714288 40.87266399 1.38347124 46.35266029 1.421875 51.83276367 C1.45917229 57.13673648 1.50564225 62.44056164 1.55806351 67.74440575 C1.57637461 69.7522131 1.591565 71.7600518 1.60334396 73.7679081 C1.69081399 88.18355805 1.88110239 102.85757849 5 117 C5.66 117 6.32 117 7 117 C6.79375 117.680625 6.5875 118.36125 6.375 119.0625 C5.77718284 122.05457456 5.77718284 122.05457456 7 125 C8.90217653 130.94104451 8.52529679 138.56212404 6 144.25390625 C5.01145914 145.84312299 4.006978 147.42240113 3 149 C3.3574765 150.93125966 3.3574765 150.93125966 4 153 C4.28515061 158.1578713 4.04090924 162.94415511 3 168 C3.31478446 169.33783393 3.64587656 170.67203709 4 172 C3.67 172.99 3.34 173.98 3 175 C3.99 174.67 4.98 174.34 6 174 C6.3403125 173.01 6.3403125 173.01 6.6875 172 C8 170 8 170 9.90234375 169.515625 C11.92773766 169.27357441 13.96442585 169.13132736 16 169 C16 168.34 16 167.68 16 167 C16.66 167 17.32 167 18 167 C18.3403125 165.824375 18.3403125 165.824375 18.6875 164.625 C20 162 20 162 22.625 160.6875 C23.800625 160.3471875 23.800625 160.3471875 25 160 C25 159.34 25 158.68 25 158 C25 156.68 25 155.36 25 154 C25.66 154 26.32 154 27 154 C26.99738159 153.36054443 26.99476318 152.72108887 26.99206543 152.06225586 C26.89418006 123.16005272 27.19619069 94.25931138 27.44538212 65.35853004 C27.50692844 58.21410072 27.56689144 51.06965834 27.62675762 43.92521477 C27.74948043 29.28346201 27.87407838 14.6417256 28 0 C28.33 0 28.66 0 29 0 C29.23367172 21.00100805 29.40997713 42.00180157 29.51812172 63.00384617 C29.56967173 72.75569188 29.6399415 82.50672959 29.75439453 92.25805664 C29.8541129 100.75805718 29.91859241 109.25747258 29.94088495 117.7580418 C29.95391558 122.25881483 29.98450021 126.75791403 30.05730057 131.2581501 C30.12530666 135.49645915 30.14609321 139.73240956 30.13107681 143.97121239 C30.13382259 145.52452047 30.15364772 147.07790932 30.19205475 148.63074493 C30.46728031 160.33489838 30.46728031 160.33489838 26.87321091 164.41352654 C24.31838097 166.23677798 21.82247847 167.63637479 19 169 C14.55352999 171.59300487 10.45158173 174.53022192 6.3046875 177.57421875 C4 179 4 179 1 179 C0.92542106 174.42850243 0.87119724 169.85736491 0.83520508 165.28540039 C0.82018895 163.7326032 0.79976972 162.17984791 0.77368164 160.62719727 C0.73697927 158.38547376 0.72020213 156.14431461 0.70703125 153.90234375 C0.69154739 153.21663803 0.67606354 152.53093231 0.66011047 151.82444763 C0.65836554 146.74074955 1.88390652 143.50063636 4 139 C4.50334841 135.77250762 4.50334841 135.77250762 4.4375 132.5625 C4.46650391 130.98662109 4.46650391 130.98662109 4.49609375 129.37890625 C4.02979211 126.20291473 3.57707491 125.13370782 1.99737549 122.52258301 C-0.72676089 117.19648929 -0.53275934 112.13745173 -0.45410156 106.25976562 C-0.45468567 105.10767609 -0.45526978 103.95558655 -0.45587158 102.76858521 C-0.45309678 98.98082795 -0.42203157 95.19386889 -0.390625 91.40625 C-0.38316051 88.7720991 -0.37746856 86.13794263 -0.37347412 83.50378418 C-0.36107764 77.29195371 -0.32830176 71.08040727 -0.28807616 64.86870146 C-0.24325416 57.79251186 -0.22134532 50.71630817 -0.20129442 43.64001179 C-0.1595657 29.09319517 -0.08927905 14.54660156 0 0 Z " fill="#1B5182" transform="translate(228,87)"/>
<path d="M0 0 C0.11586755 4.43728151 0.18714058 8.87417591 0.25 13.3125 C0.28351563 14.57513672 0.31703125 15.83777344 0.3515625 17.13867188 C0.36445313 18.34716797 0.37734375 19.55566406 0.390625 20.80078125 C0.41157227 21.91622314 0.43251953 23.03166504 0.45410156 24.1809082 C0 27 0 27 -1.84082031 28.78979492 C-8.4576967 32.49850775 -14.38265689 35.26756316 -22 36 C-23 35 -23 35 -23.11352539 32.95874023 C-23.10828857 32.08419189 -23.10305176 31.20964355 -23.09765625 30.30859375 C-23.09443359 29.36435547 -23.09121094 28.42011719 -23.08789062 27.44726562 C-23.07951172 26.45404297 -23.07113281 25.46082031 -23.0625 24.4375 C-23.05798828 23.44041016 -23.05347656 22.44332031 -23.04882812 21.41601562 C-23.03700007 18.94395151 -23.02051849 16.47200482 -23 14 C-21.83339844 13.44828125 -20.66679687 12.8965625 -19.46484375 12.328125 C-15.17742342 10.18488733 -11.40069342 7.60478602 -7.5625 4.75 C-1.11130618 0 -1.11130618 0 0 0 Z " fill="#112250" transform="translate(214,249)"/>
<path d="M0 0 C1.12019531 -0.00128906 2.24039063 -0.00257812 3.39453125 -0.00390625 C4.57402344 -0.00003906 5.75351563 0.00382812 6.96875 0.0078125 C8.73798828 0.00201172 8.73798828 0.00201172 10.54296875 -0.00390625 C12.22326172 -0.00197266 12.22326172 -0.00197266 13.9375 0 C14.97326172 0.00112793 16.00902344 0.00225586 17.07617188 0.00341797 C19.46875 0.1328125 19.46875 0.1328125 20.46875 1.1328125 C20.56371708 3.53629536 20.59433862 5.91092232 20.58227539 8.31469727 C20.58242142 9.06586823 20.58256744 9.81703918 20.5827179 10.5909729 C20.58201863 13.08541709 20.57422564 15.57978753 20.56640625 18.07421875 C20.56454212 19.79914814 20.56311819 21.52407807 20.56211853 23.24900818 C20.55829297 27.79793753 20.54846238 32.34683517 20.53741455 36.89575195 C20.52720124 41.53401256 20.52262108 46.17227827 20.51757812 50.81054688 C20.50684014 59.91798272 20.48976327 69.02539498 20.46875 78.1328125 C17.01399714 77.36367756 14.9100554 76.21379155 12.0625 74.078125 C10.82306641 73.15580078 10.82306641 73.15580078 9.55859375 72.21484375 C8.70394531 71.56902344 7.84929687 70.92320312 6.96875 70.2578125 C6.11410156 69.61972656 5.25945312 68.98164063 4.37890625 68.32421875 C2.07103382 66.59961517 -0.23095624 64.86750338 -2.53125 63.1328125 C-3.2255864 62.72301147 -3.91992279 62.31321045 -4.63529968 61.89099121 C-6.53125 60.1328125 -6.53125 60.1328125 -7.01899719 57.53890991 C-7.01313095 56.50045929 -7.00726471 55.46200867 -7.0012207 54.39208984 C-7.00414627 53.21431976 -7.00707184 52.03654968 -7.01008606 50.8230896 C-6.99257797 49.55115753 -6.97506989 48.27922546 -6.95703125 46.96875 C-6.95374313 45.66579987 -6.95045502 44.36284973 -6.94706726 43.02041626 C-6.93943006 40.26468483 -6.91887597 37.50947335 -6.88793945 34.75390625 C-6.84828684 31.21503775 -6.8303185 27.67650699 -6.82063007 24.13744164 C-6.8106764 20.76865551 -6.7904312 17.39998753 -6.76953125 14.03125 C-6.75845085 12.11727921 -6.75845085 12.11727921 -6.74714661 10.16464233 C-6.73431137 8.99317657 -6.72147614 7.82171082 -6.70825195 6.61474609 C-6.69840775 5.57788666 -6.68856354 4.54102722 -6.67842102 3.4727478 C-6.39799158 -0.98592042 -3.90101038 0.00424814 0 0 Z M-5.53125 1.1328125 C-5.67050782 18.81855569 -5.12946935 36.45988554 -4.53125 54.1328125 C-3.54125 54.1328125 -2.55125 54.1328125 -1.53125 54.1328125 C-2.02625 56.6078125 -2.02625 56.6078125 -2.53125 59.1328125 C-1.603125 59.7515625 -1.603125 59.7515625 -0.65625 60.3828125 C1.46875 62.1328125 1.46875 62.1328125 2.34375 64.1953125 C4.05530666 67.14299342 6.25712179 67.26814337 9.46875 68.1328125 C11.46875 68.79947917 13.46875 69.46614583 15.46875 70.1328125 C15.46875 70.7928125 15.46875 71.4528125 15.46875 72.1328125 C16.45875 72.1328125 17.44875 72.1328125 18.46875 72.1328125 C18.46875 48.7028125 18.46875 25.2728125 18.46875 1.1328125 C10.54875 1.1328125 2.62875 1.1328125 -5.53125 1.1328125 Z " fill="#227DB7" transform="translate(195.53125,114.8671875)"/>
<path d="M0 0 C6.27 0 12.54 0 19 0 C19 6.6 19 13.2 19 20 C12.73 20 6.46 20 0 20 C0 13.4 0 6.8 0 0 Z " fill="#20D9F0" transform="translate(268,54)"/>
<path d="M0 0 C2.78717162 2.29167444 5.26318665 4.76318665 7.8125 7.3125 C9.97870544 8.60769995 9.97870544 8.60769995 11.8125 9.3125 C11.8125 9.9725 11.8125 10.6325 11.8125 11.3125 C12.328125 11.539375 12.84375 11.76625 13.375 12 C16.16204731 13.50071778 18.60083948 15.29394856 21.12890625 17.19140625 C22.93136765 18.49801179 22.93136765 18.49801179 25.8125 19.3125 C26.96864004 20.47709445 28.12201749 21.64459824 29.25927734 22.82763672 C32.42859338 25.85746698 36.07660072 28.31266343 39.625 30.875 C41.32723787 32.11661881 43.02905369 33.35881642 44.73046875 34.6015625 C46.00736572 35.53210449 46.00736572 35.53210449 47.31005859 36.48144531 C51.03967649 39.21043402 54.74195206 41.97511761 58.4375 44.75 C59.41843628 45.48633667 59.41843628 45.48633667 60.41918945 46.23754883 C65.25722352 49.87772369 70.05893202 53.56246304 74.8125 57.3125 C74.4825 58.3025 74.1525 59.2925 73.8125 60.3125 C73.28140625 59.90257812 72.7503125 59.49265625 72.203125 59.0703125 C71.49671875 58.53148437 70.7903125 57.99265625 70.0625 57.4375 C69.36640625 56.90382812 68.6703125 56.37015625 67.953125 55.8203125 C65.87127953 54.26811178 65.87127953 54.26811178 63.609375 53.2421875 C61.8125 52.3125 61.8125 52.3125 60.8125 50.3125 C59.3584375 50.126875 59.3584375 50.126875 57.875 49.9375 C56.864375 49.73125 55.85375 49.525 54.8125 49.3125 C53.625 47.375 53.625 47.375 52.8125 45.3125 C51.3275 44.3225 51.3275 44.3225 49.8125 43.3125 C49.8125 42.6525 49.8125 41.9925 49.8125 41.3125 C48.4925 40.6525 47.1725 39.9925 45.8125 39.3125 C45.8125 38.6525 45.8125 37.9925 45.8125 37.3125 C45.11125 37.23 44.41 37.1475 43.6875 37.0625 C39.28926973 35.91513558 36.00367306 33.50367306 32.8125 30.3125 C31.4925 30.3125 30.1725 30.3125 28.8125 30.3125 C28.8125 28.9925 28.8125 27.6725 28.8125 26.3125 C26.1725 25.9825 23.5325 25.6525 20.8125 25.3125 C20.8125 23.9925 20.8125 22.6725 20.8125 21.3125 C20.1525 21.3125 19.4925 21.3125 18.8125 21.3125 C18.3175 19.3325 18.3175 19.3325 17.8125 17.3125 C17.255625 17.250625 16.69875 17.18875 16.125 17.125 C13.8125 16.3125 13.8125 16.3125 11.8125 14.0625 C8.50970724 10.45850916 4.05578107 9.24305889 -0.4453125 7.62109375 C-3.1875 6.3125 -3.1875 6.3125 -4.69921875 4.14453125 C-5.19035156 3.53996094 -5.68148437 2.93539062 -6.1875 2.3125 C-8.94233302 2.04564692 -8.94233302 2.04564692 -11.875 2.5625 C-13.36580078 2.75585938 -13.36580078 2.75585938 -14.88671875 2.953125 C-15.64597656 3.07171875 -16.40523438 3.1903125 -17.1875 3.3125 C-15.390625 -0.59375 -15.390625 -0.59375 -13.5625 -1.4375 C-4.51432927 -2.38993902 -4.51432927 -2.38993902 0 0 Z " fill="#EF5A9A" transform="translate(86.1875,110.6875)"/>
<path d="M0 0 C0.33 0 0.66 0 1 0 C1.20863806 13.17794604 1.36849999 26.3554985 1.46630955 39.53476048 C1.51325691 45.6547083 1.57692083 51.7735253 1.67895508 57.89282227 C1.77683067 63.79975916 1.83057609 69.70560935 1.85389519 75.6132946 C1.87050999 77.86567227 1.90295681 80.11799119 1.95157051 82.36990547 C2.01703988 85.52858497 2.02589768 88.68279092 2.02172852 91.84204102 C2.054086 92.77064941 2.08644348 93.69925781 2.11978149 94.65600586 C2.06180969 98.72259724 1.87728425 101.05741517 -0.95929146 104.10513115 C-3.23678052 105.89718321 -5.53712293 107.47583961 -8 109 C-9.06089844 109.73089844 -10.12179687 110.46179688 -11.21484375 111.21484375 C-12.11332031 111.78332031 -13.01179688 112.35179687 -13.9375 112.9375 C-14.85402344 113.52402344 -15.77054687 114.11054688 -16.71484375 114.71484375 C-19 116 -19 116 -21 116 C-21 93.23 -21 70.46 -21 47 C-20.67 47 -20.34 47 -20 47 C-18.42082722 67.3822487 -17.71313759 87.55553664 -18 108 C-16.02767749 109.25973028 -16.02767749 109.25973028 -13.8359375 108.44140625 C-12.61777344 108.00634766 -12.61777344 108.00634766 -11.375 107.5625 C-10.55773437 107.27503906 -9.74046875 106.98757812 -8.8984375 106.69140625 C-7.95871094 106.34916016 -7.95871094 106.34916016 -7 106 C-7 104.35 -7 102.7 -7 101 C-6.34 101 -5.68 101 -5 101 C-5 101.66 -5 102.32 -5 103 C-4.01 103 -3.02 103 -2 103 C-2 102.34 -2 101.68 -2 101 C-1.34 101 -0.68 101 0 101 C0 67.67 0 34.34 0 0 Z " fill="#1183C3" transform="translate(291,123)"/>
<path d="M0 0 C4.36896198 1.46170447 7.63758762 3.83801876 11.1875 6.6875 C12.33859248 7.59143942 13.49094909 8.49377126 14.64453125 9.39453125 C15.21123535 9.83748535 15.77793945 10.28043945 16.36181641 10.73681641 C22.28997597 15.30794868 28.42483884 19.42654285 35 23 C35 23.66 35 24.32 35 25 C36.32 25.33 37.64 25.66 39 26 C39 26.66 39 27.32 39 28 C39.70769531 28.22816406 40.41539062 28.45632812 41.14453125 28.69140625 C44.61213396 30.2805265 46.89650469 32.34450163 49.6875 34.9375 C50.64011719 35.81277344 51.59273437 36.68804687 52.57421875 37.58984375 C55 40 55 40 57 43 C57 43.99 57 44.98 57 46 C55.35 46 53.7 46 52 46 C51.731875 45.05125 51.46375 44.1025 51.1875 43.125 C50.25013412 39.74732727 50.25013412 39.74732727 47 38 C45.34450469 37.61500109 43.6777567 37.27206865 42 37 C41.67 36.01 41.34 35.02 41 34 C39.59376706 33.02902964 38.18117617 32.06566788 36.734375 31.15625 C32.85300459 28.56866973 29.45748061 25.3046574 25.98828125 22.19921875 C22.96976386 19.51417566 20.03695367 16.9250167 16.625 14.75 C14 13 14 13 12 10 C9.72035575 8.62803062 7.37599146 7.46929494 4.99609375 6.28125 C3 5 3 5 2 2 C1.34 2 0.68 2 0 2 C0 1.34 0 0.68 0 0 Z " fill="#DC5F72" transform="translate(162,170)"/>
<path d="M0 0 C8.91 0 17.82 0 27 0 C27 10.89 27 21.78 27 33 C26.67 33 26.34 33 26 33 C26 29.7 26 26.4 26 23 C25.34 23 24.68 23 24 23 C23.67 23.66 23.34 24.32 23 25 C23 23.02 23 21.04 23 19 C23.66 19 24.32 19 25 19 C25.33 15.04 25.66 11.08 26 7 C25.01 7.33 24.02 7.66 23 8 C22.34 7.34 21.68 6.68 21 6 C17.78017614 5.67903013 17.78017614 5.67903013 14.125 5.75 C12.27261719 5.74226563 12.27261719 5.74226563 10.3828125 5.734375 C7.27811666 5.97816174 5.58960304 6.36035184 3 8 C3.66 8.66 4.32 9.32 5 10 C4.01 10 3.02 10 2 10 C2 14.29 2 18.58 2 23 C1.34 23 0.68 23 0 23 C0 15.41 0 7.82 0 0 Z " fill="#27BDDB" transform="translate(229,86)"/>
<path d="M0 0 C2.48002593 2.48002593 2.29694693 3.32832513 2.3125 6.75 C2.19070259 12.38516006 0.74541602 15.90550078 -2.875 20.25 C-5 22 -5 22 -7.22265625 22.8203125 C-10.69553646 24.2954318 -13.55054038 26.39357742 -16.5625 28.625 C-21.04509025 31.89032243 -25.55308398 35.07572366 -30.1875 38.125 C-36.6894458 42.41611015 -43.0758211 46.89569419 -49.1875 51.73046875 C-51 53 -51 53 -53 53 C-53 52.01 -53 51.02 -53 50 C-52.030625 49.54625 -51.06125 49.0925 -50.0625 48.625 C-46.92920418 47.34213779 -46.92920418 47.34213779 -46 45 C-45.34 45 -44.68 45 -44 45 C-43.67 44.01 -43.34 43.02 -43 42 C-42.360625 41.690625 -41.72125 41.38125 -41.0625 41.0625 C-38.510646 39.74790855 -38.12692942 38.57583868 -37 36 C-34.16510975 33.16510975 -31.03866043 32.838975 -27.21484375 31.87890625 C-26.48394531 31.58886719 -25.75304687 31.29882812 -25 31 C-24.67 30.01 -24.34 29.02 -24 28 C-20.58399252 25.72266168 -18.03908914 25.37220752 -14.05859375 24.7578125 C-11.81870042 24.18989785 -11.81870042 24.18989785 -10.91015625 22 C-10.60980469 21.34 -10.30945313 20.68 -10 20 C-7 18.875 -7 18.875 -4 18 C-1.09472388 15.09472388 -1.28735681 11.78900975 -0.875 7.875 C-0.78863281 7.12089844 -0.70226562 6.36679688 -0.61328125 5.58984375 C-0.40110739 3.72742873 -0.19954237 1.86381069 0 0 Z " fill="#DE3548" transform="translate(219,214)"/>
<path d="M0 0 C6.93 0 13.86 0 21 0 C21 1.65 21 3.3 21 5 C19.80503906 4.98259766 19.80503906 4.98259766 18.5859375 4.96484375 C10.74521011 4.88148443 10.74521011 4.88148443 3 6 C1.61510632 10.95484183 2.10879385 15.74589148 2.4375 20.8125 C2.48970703 21.69615234 2.54191406 22.57980469 2.59570312 23.49023438 C2.72474619 25.66050408 2.86159956 27.83030693 3 30 C2.34 30.33 1.68 30.66 1 31 C-0.43509221 28.12981559 -0.11158506 25.66456277 -0.09765625 22.4609375 C-0.09443359 21.15898437 -0.09121094 19.85703125 -0.08789062 18.515625 C-0.07953466 17.13541601 -0.07106971 15.75520768 -0.0625 14.375 C-0.05748501 12.98698074 -0.0529221 11.59895978 -0.04882812 10.2109375 C-0.03700985 6.80727327 -0.0190739 3.4036313 0 0 Z " fill="#12B9E5" transform="translate(270,123)"/>
<path d="M0 0 C2.78717162 2.29167444 5.26318665 4.76318665 7.8125 7.3125 C9.97870544 8.60769995 9.97870544 8.60769995 11.8125 9.3125 C11.8125 9.9725 11.8125 10.6325 11.8125 11.3125 C12.37453125 11.56773438 12.9365625 11.82296875 13.515625 12.0859375 C16.10636482 13.46942781 18.26357845 15.11188583 20.5625 16.9375 C21.36171875 17.56914062 22.1609375 18.20078125 22.984375 18.8515625 C23.58765625 19.33367187 24.1909375 19.81578125 24.8125 20.3125 C22.19136292 20.3125 20.30314888 19.99957555 17.8125 19.3125 C17.8125 18.6525 17.8125 17.9925 17.8125 17.3125 C17.255625 17.250625 16.69875 17.18875 16.125 17.125 C13.8125 16.3125 13.8125 16.3125 11.8125 14.0625 C8.50970724 10.45850916 4.05578107 9.24305889 -0.4453125 7.62109375 C-3.1875 6.3125 -3.1875 6.3125 -4.69921875 4.14453125 C-5.19035156 3.53996094 -5.68148437 2.93539062 -6.1875 2.3125 C-8.94233302 2.04564692 -8.94233302 2.04564692 -11.875 2.5625 C-13.36580078 2.75585938 -13.36580078 2.75585938 -14.88671875 2.953125 C-15.64597656 3.07171875 -16.40523438 3.1903125 -17.1875 3.3125 C-15.390625 -0.59375 -15.390625 -0.59375 -13.5625 -1.4375 C-4.51432927 -2.38993902 -4.51432927 -2.38993902 0 0 Z " fill="#E65CA3" transform="translate(86.1875,110.6875)"/>
<path d="M0 0 C0.33 0 0.66 0 1 0 C2.20194587 17.66431155 2.10354036 35.3057496 2 53 C3.485 52.505 3.485 52.505 5 52 C6 55 6 55 6 58 C6.33 58.99 6.66 59.98 7 61 C1.125 60.125 1.125 60.125 0 59 C-0.09381302 57.15881971 -0.11743954 55.31402359 -0.11352539 53.47045898 C-0.11344986 52.28931015 -0.11337433 51.10816132 -0.11329651 49.89122009 C-0.10813522 48.6058284 -0.10297394 47.32043671 -0.09765625 45.99609375 C-0.0962413 44.68794205 -0.09482635 43.37979034 -0.09336853 42.03199768 C-0.0895441 38.54837141 -0.07971446 35.06478661 -0.06866455 31.58117676 C-0.05844882 28.02873292 -0.05387056 24.47628241 -0.04882812 20.92382812 C-0.03809212 13.94920168 -0.0210166 6.97460283 0 0 Z " fill="#1870AF" transform="translate(189,116)"/>
<path d="M0 0 C1.32 0.33 2.64 0.66 4 1 C2.625 2.5 2.625 2.5 1 4 C0.34 4 -0.32 4 -1 4 C-1 4.66 -1 5.32 -1 6 C-3.01171875 7.3671875 -3.01171875 7.3671875 -5.6875 8.875 C-8.5941252 10.5534737 -11.18567924 12.1485434 -13.8125 14.25 C-17.97549032 17.58039226 -21.6600123 18.41125669 -27.01171875 18.25 C-31.6166811 17.67098705 -34.36283194 15.72100596 -37.375 12.3125 C-38.179375 11.1678125 -38.179375 11.1678125 -39 10 C-38.67 9.34 -38.34 8.68 -38 8 C-32.125 10.75 -32.125 10.75 -31 13 C-29.02477154 14.04808041 -27.02518491 15.0520411 -25 16 C-24.67 15.34 -24.34 14.68 -24 14 C-22.21484375 13.32421875 -22.21484375 13.32421875 -19.9375 12.6875 C-15.71825803 11.37946791 -12.45377618 9.50971494 -8.796875 7.07421875 C-6.58835398 5.75390727 -4.55370442 5.23940979 -2 5 C-2 4.34 -2 3.68 -2 3 C-1.34 3 -0.68 3 0 3 C0 2.01 0 1.02 0 0 Z " fill="#C31365" transform="translate(102,309)"/>
<path d="M0 0 C0.33 0 0.66 0 1 0 C1.0578304 4.45827926 1.09353855 8.9164628 1.125 13.375 C1.14175781 14.64601563 1.15851563 15.91703125 1.17578125 17.2265625 C1.18222656 18.43828125 1.18867188 19.65 1.1953125 20.8984375 C1.20578613 22.01911621 1.21625977 23.13979492 1.22705078 24.29443359 C1 27 1 27 -1 29 C-2.7122135 29.69147084 -4.42443424 30.38292376 -6.13671875 31.07421875 C-8.09550467 32.04745201 -9.45420464 33.15249739 -11.0625 34.625 C-14.26005533 37.2102575 -15.89948476 38.08914164 -20 38 C-22.1640625 36.66796875 -22.1640625 36.66796875 -24 34 C-24.49854067 30.40600273 -24.37530712 26.8694479 -24.25 23.25 C-24.23195312 22.26644531 -24.21390625 21.28289062 -24.1953125 20.26953125 C-24.14824126 17.84536217 -24.08250742 15.42317941 -24 13 C-23.67 13 -23.34 13 -23 13 C-22.67 19.6 -22.34 26.2 -22 33 C-17.545 32.505 -17.545 32.505 -13 32 C-12.67 31.34 -12.34 30.68 -12 30 C-11.46375 29.87625 -10.9275 29.7525 -10.375 29.625 C-6.67364662 28.65095964 -3.62254468 27.84497779 -1 25 C0.04995128 20.76380278 -0.0214044 16.59646412 -0.0625 12.25 C-0.04638672 11.07566406 -0.03027344 9.90132813 -0.01367188 8.69140625 C0.02167344 5.7930905 0.02505113 2.89832066 0 0 Z " fill="#0E183F" transform="translate(214,251)"/>
<path d="M0 0 C6.27 0 12.54 0 19 0 C19 6.6 19 13.2 19 20 C12.73 20 6.46 20 0 20 C0 13.4 0 6.8 0 0 Z M2 1 C2 6.28 2 11.56 2 17 C7.16391829 18.7213061 12.59291236 18.05353552 18 18 C18 12.39 18 6.78 18 1 C12.72 1 7.44 1 2 1 Z " fill="#25B6CA" transform="translate(268,54)"/>
<path d="M0 0 C0.33 0 0.66 0 1 0 C1 25.41 1 50.82 1 77 C-2.56679337 76.10830166 -3.95603121 75.5329766 -6.75 73.4375 C-7.36359375 72.98246094 -7.9771875 72.52742188 -8.609375 72.05859375 C-9.29773438 71.53458984 -9.29773438 71.53458984 -10 71 C-8.140625 70.41796875 -8.140625 70.41796875 -6 70 C-3.75 71.3125 -3.75 71.3125 -2 73 C-2 73.66 -2 74.32 -2 75 C-1.34 75 -0.68 75 0 75 C0 50.25 0 25.5 0 0 Z " fill="#264F65" transform="translate(215,116)"/>
<path d="M0 0 C-1.36438785 4.48077372 -3.16975917 6.25259079 -7 8.875 C-7.97839844 9.55304688 -8.95679688 10.23109375 -9.96484375 10.9296875 C-10.96644531 11.61289062 -11.96804687 12.29609375 -13 13 C-13.95003906 13.68320312 -14.90007812 14.36640625 -15.87890625 15.0703125 C-22.73456478 20 -22.73456478 20 -25 20 C-25 19.01 -25 18.02 -25 17 C-24.030625 16.54625 -23.06125 16.0925 -22.0625 15.625 C-18.92920418 14.34213779 -18.92920418 14.34213779 -18 12 C-17.34 12 -16.68 12 -16 12 C-15.67 11.01 -15.34 10.02 -15 9 C-14.360625 8.690625 -13.72125 8.38125 -13.0625 8.0625 C-10.510646 6.74790855 -10.12692942 5.57583868 -9 3 C-6.31795079 0.31795079 -3.73391546 0 0 0 Z " fill="#DB304E" transform="translate(191,247)"/>
<path d="M0 0 C0.33 0 0.66 0 1 0 C3.38776806 33.70817254 3.38776806 33.70817254 3 47 C2.01 46.67 1.02 46.34 0 46 C0 30.82 0 15.64 0 0 Z " fill="#1190D6" transform="translate(270,170)"/>
<path d="M0 0 C4.30697244 1.4515211 7.55416738 3.75402301 11.0625 6.5625 C12.202303 7.46198011 13.34294931 8.36039247 14.484375 9.2578125 C15.06251953 9.71317383 15.64066406 10.16853516 16.23632812 10.63769531 C17.97273055 11.97893639 19.73468846 13.27333058 21.515625 14.5546875 C22.06984131 14.9561499 22.62405762 15.3576123 23.19506836 15.77124023 C24.73679333 16.88291121 26.28427197 17.98658972 27.83203125 19.08984375 C28.54746094 19.72019531 29.26289063 20.35054687 30 21 C30 21.99 30 22.98 30 24 C25.50838784 22.58835046 23.25242296 20.33175035 20 17 C18.948125 16.29875 17.89625 15.5975 16.8125 14.875 C14 13 14 13 12 10 C9.72035575 8.62803062 7.37599146 7.46929494 4.99609375 6.28125 C3 5 3 5 2 2 C1.34 2 0.68 2 0 2 C0 1.34 0 0.68 0 0 Z " fill="#EF658D" transform="translate(162,170)"/>
<path d="M0 0 C0.33 0 0.66 0 1 0 C1 13.53 1 27.06 1 41 C-6 45 -6 45 -9 45 C-8.3125 42.625 -8.3125 42.625 -7 40 C-4.375 38.6875 -4.375 38.6875 -2 38 C-2 37.34 -2 36.68 -2 36 C-2 34.68 -2 33.36 -2 32 C-1.34 32 -0.68 32 0 32 C0 21.44 0 10.88 0 0 Z " fill="#135FBF" transform="translate(255,209)"/>
<path d="M0 0 C0.33 0 0.66 0 1 0 C1.05534912 0.54938232 1.11069824 1.09876465 1.16772461 1.66479492 C1.42181253 4.17262423 1.67962299 6.68005761 1.9375 9.1875 C2.02451172 10.05181641 2.11152344 10.91613281 2.20117188 11.80664062 C2.6267231 15.9203025 3.07203814 19.96211191 4 24 C4.66 24 5.32 24 6 24 C5.814375 24.721875 5.62875 25.44375 5.4375 26.1875 C4.98004693 29.12826973 5.26483643 31.14103058 6 34 C5.505 32.515 5.505 32.515 5 31 C4.34 30.835 3.68 30.67 3 30.5 C2.34 30.335 1.68 30.17 1 30 C-0.09911549 26.70265354 -0.1139456 24.27041255 -0.09765625 20.80078125 C-0.09443359 19.59228516 -0.09121094 18.38378906 -0.08789062 17.13867188 C-0.07951172 15.87603516 -0.07113281 14.61339844 -0.0625 13.3125 C-0.05573242 11.40114258 -0.05573242 11.40114258 -0.04882812 9.45117188 C-0.03702873 6.30073436 -0.02056597 3.15039051 0 0 Z " fill="#156BC6" transform="translate(229,180)"/>
<path d="M0 0 C0.66 0.33 1.32 0.66 2 1 C1.01 2.485 1.01 2.485 0 4 C0.70125 3.67 1.4025 3.34 2.125 3 C5.26003116 1.90955438 7.70563182 1.84677357 11 2 C10.67 2.66 10.34 3.32 10 4 C9.030625 4.144375 8.06125 4.28875 7.0625 4.4375 C5.5465625 4.7159375 5.5465625 4.7159375 4 5 C3.01 6.485 3.01 6.485 2 8 C1.01 8.33 0.02 8.66 -1 9 C-1.33 9.66 -1.66 10.32 -2 11 C-2.66 11 -3.32 11 -4 11 C-4 12.32 -4 13.64 -4 15 C-4.66 15 -5.32 15 -6 15 C-6.0270043 13.54176788 -6.04639787 12.08339325 -6.0625 10.625 C-6.07410156 9.81289062 -6.08570313 9.00078125 -6.09765625 8.1640625 C-6 6 -6 6 -5 4 C-4.34 4 -3.68 4 -3 4 C-3 3.34 -3 2.68 -3 2 C-2.01 1.34 -1.02 0.68 0 0 Z " fill="#E93794" transform="translate(69,110)"/>
<path d="M0 0 C8.25 0 16.5 0 25 0 C24.67 0.99 24.34 1.98 24 3 C16.41 3 8.82 3 1 3 C0.67 2.01 0.34 1.02 0 0 Z " fill="#47D7F2" transform="translate(230,87)"/>
<path d="M0 0 C1.32 0.33 2.64 0.66 4 1 C3.33613281 1.45890625 2.67226562 1.9178125 1.98828125 2.390625 C-3.50163521 6.19923758 -3.50163521 6.19923758 -8.8125 10.25 C-11.10162425 12.0812994 -13.47752745 13.51238798 -16 15 C-16.721875 15.556875 -17.44375 16.11375 -18.1875 16.6875 C-20 18 -20 18 -22 18 C-21.67 16.35 -21.34 14.7 -21 13 C-19.88625 12.7525 -18.7725 12.505 -17.625 12.25 C-13.94956846 11.44943548 -13.94956846 11.44943548 -13 9.0625 C-12.67 8.381875 -12.34 7.70125 -12 7 C-8.89888039 5.44944019 -6.02260634 4.21528554 -2.625 3.5 C-2.08875 3.335 -1.5525 3.17 -1 3 C-0.67 2.01 -0.34 1.02 0 0 Z " fill="#E62564" transform="translate(162,267)"/>
<path d="M0 0 C0.8971875 0.5259375 0.8971875 0.5259375 1.8125 1.0625 C4.10813214 2.33304698 4.10813214 2.33304698 7 1 C8.75390625 2.109375 8.75390625 2.109375 10.5625 3.75 C11.16191406 4.28109375 11.76132813 4.8121875 12.37890625 5.359375 C14.90235958 7.91323138 16 9.35383882 16 13 C14.35 13 12.7 13 11 13 C10.731875 12.05125 10.46375 11.1025 10.1875 10.125 C9.25013412 6.74732727 9.25013412 6.74732727 6 5 C4.34450469 4.61500109 2.6777567 4.27206865 1 4 C0.67 2.68 0.34 1.36 0 0 Z " fill="#F36575" transform="translate(203,203)"/>
<path d="M0 0 C-1.051875 0.721875 -2.10375 1.44375 -3.1875 2.1875 C-5.62256389 3.91213278 -7.5169945 5.52930389 -9.625 7.6875 C-12.0678385 10.06605327 -13.82014292 10.91215416 -17 12 C-17.99 12.66 -18.98 13.32 -20 14 C-20 11 -20 11 -17.75 8.4375 C-14.36983851 5.44144777 -12.52973579 4 -8 4 C-8 3.34 -8 2.68 -8 2 C-7.34 2 -6.68 2 -6 2 C-6 1.34 -6 0.68 -6 0 C-3 -1 -3 -1 0 0 Z " fill="#DD2167" transform="translate(140,286)"/>
<path d="M0 0 C1.2375 1.051875 1.2375 1.051875 2.5 2.125 C2.5 2.785 2.5 3.445 2.5 4.125 C1.241875 3.774375 -0.01625 3.42375 -1.3125 3.0625 C-6.84092129 1.80363974 -11.93167792 2.35480218 -17.5 3.125 C-15.703125 -0.78125 -15.703125 -0.78125 -13.875 -1.625 C-4.81378299 -2.57881232 -4.81378299 -2.57881232 0 0 Z " fill="#CB5893" transform="translate(86.5,110.875)"/>
<path d="M0 0 C6.6 0 13.2 0 20 0 C19.67 0.99 19.34 1.98 19 3 C13.06 3 7.12 3 1 3 C0.67 2.01 0.34 1.02 0 0 Z " fill="#57D3F2" transform="translate(271,123)"/>
<path d="M0 0 C0.33 0 0.66 0 1 0 C1.31732684 3.4905952 1.46521283 5.35585916 -0.625 8.25 C-3.32191463 10.23720025 -5.82507532 10.98672617 -9 12 C-10.70921589 13.5412312 -10.70921589 13.5412312 -12 15 C-12.66 15 -13.32 15 -14 15 C-13.6875 12.625 -13.6875 12.625 -13 10 C-9.69628883 7.79752589 -8.7849683 7.90537579 -5 8 C-4.01 7.67 -3.02 7.34 -2 7 C-2.33 6.01 -2.66 5.02 -3 4 C-2.34 4 -1.68 4 -1 4 C-0.67 2.68 -0.34 1.36 0 0 Z " fill="#EE4653" transform="translate(217,224)"/>
<path d="M0 0 C3.43927579 1.2419607 6.25207819 2.55740284 9 5 C9 5.66 9 6.32 9 7 C10.32 7.33 11.64 7.66 13 8 C13 8.66 13 9.32 13 10 C10.03824877 9.38722388 8.61941217 8.74627478 6 7 C4.66431979 7.32380126 3.33076989 7.65657551 2 8 C0 6 0 6 -0.125 2.875 C-0.08375 1.92625 -0.0425 0.9775 0 0 Z " fill="#ED3A94" transform="translate(91,120)"/>
<path d="M0 0 C6.875 2.75 6.875 2.75 8 5 C11.66809953 7.49430768 15.69585081 7.56958508 20 8 C18 10 18 10 14.25 10.3125 C10.18396514 10.19464392 7.44151843 9.26827351 4 7 C0 2.68421053 0 2.68421053 0 0 Z " fill="#AD0F5E" transform="translate(63,317)"/>
<path d="M0 0 C0.33 0 0.66 0 1 0 C1 6.93 1 13.86 1 21 C0.01 21 -0.98 21 -2 21 C-2.2494783 13.70968976 -1.72330907 7.09326321 0 0 Z " fill="#1584D8" transform="translate(213,166)"/>
<path d="M0 0 C0.33 0.99 0.66 1.98 1 3 C-5.14285714 8.57142857 -5.14285714 8.57142857 -10 9 C-10 9.66 -10 10.32 -10 11 C-10.99 11 -11.98 11 -13 11 C-11.49392117 6.89911064 -9.03811122 5.46490446 -5.375 3.25 C-4.37210938 2.63640625 -3.36921875 2.0228125 -2.3359375 1.390625 C-1.17964844 0.70226562 -1.17964844 0.70226562 0 0 Z " fill="#1E2E5E" transform="translate(205,255)"/>
<path d="M0 0 C0.33 0 0.66 0 1 0 C1.33 7.26 1.66 14.52 2 22 C5.3 22 8.6 22 12 22 C8 25 8 25 4.875 24.875 C2 24 2 24 0 21 C-0.22705078 18.73168945 -0.22705078 18.73168945 -0.1953125 16.11328125 C-0.18886719 15.17548828 -0.18242187 14.23769531 -0.17578125 13.27148438 C-0.15902344 12.29501953 -0.14226562 11.31855469 -0.125 10.3125 C-0.11597656 9.32443359 -0.10695312 8.33636719 -0.09765625 7.31835938 C-0.0740843 4.87866235 -0.04118022 2.43945303 0 0 Z " fill="#060B2C" transform="translate(190,264)"/>
<path d="M0 0 C0.33 0 0.66 0 1 0 C1 10.23 1 20.46 1 31 C0.67 31 0.34 31 0 31 C0 27.7 0 24.4 0 21 C-0.66 21 -1.32 21 -2 21 C-2.33 21.66 -2.66 22.32 -3 23 C-3 21.02 -3 19.04 -3 17 C-2.34 17 -1.68 17 -1 17 C-0.67 11.39 -0.34 5.78 0 0 Z " fill="#10B7DE" transform="translate(255,88)"/>
<path d="M0 0 C4.91186721 1.3263499 8.01973146 3.3339171 11.875 6.625 C12.84179688 7.44226563 13.80859375 8.25953125 14.8046875 9.1015625 C15.89136719 10.04128906 15.89136719 10.04128906 17 11 C14.37886292 11 12.49064888 10.68707555 10 10 C10 9.34 10 8.68 10 8 C9.443125 7.938125 8.88625 7.87625 8.3125 7.8125 C4.51666774 6.47882921 1.78829587 3.57659173 0 0 Z " fill="#F060A7" transform="translate(94,120)"/>
<path d="M0 0 C2.48002593 2.48002593 2.29694693 3.32832513 2.3125 6.75 C2.18789361 12.51512246 0.74762388 16.10257979 -3.1875 20.375 C-3.785625 20.91125 -4.38375 21.4475 -5 22 C-5.66 21.67 -6.32 21.34 -7 21 C-6.20207031 20.34644531 -5.40414062 19.69289062 -4.58203125 19.01953125 C-1.3161967 15.2003329 -1.04847562 12.55414725 -0.6875 7.6875 C-0.61466797 6.94693359 -0.54183594 6.20636719 -0.46679688 5.44335938 C-0.29137967 3.6307149 -0.14293553 1.81549459 0 0 Z " fill="#94333B" transform="translate(219,214)"/>
<path d="M0 0 C0.66 0 1.32 0 2 0 C4.27161114 6.01308831 4.49277727 11.70829445 3 18 C2.01 18.99 1.02 19.98 0 21 C0 14.07 0 7.14 0 0 Z " fill="#1259B4" transform="translate(232,211)"/>
<path d="M0 0 C0.99 0 1.98 0 3 0 C2.64880827 2.83417891 2.21508776 3.81648089 0.00390625 5.703125 C-0.80175781 6.21359375 -1.60742188 6.7240625 -2.4375 7.25 C-3.24058594 7.77078125 -4.04367188 8.2915625 -4.87109375 8.828125 C-7 10 -7 10 -9 10 C-9 9.01 -9 8.02 -9 7 C-8.030625 6.54625 -7.06125 6.0925 -6.0625 5.625 C-2.92920418 4.34213779 -2.92920418 4.34213779 -2 2 C-1.34 2 -0.68 2 0 2 C0 1.34 0 0.68 0 0 Z " fill="#D6274E" transform="translate(175,257)"/>
<path d="M0 0 C0.33 0 0.66 0 1 0 C1 8.91 1 17.82 1 27 C-0.98 27.99 -0.98 27.99 -3 29 C-2.67854004 28.46084961 -2.35708008 27.92169922 -2.02587891 27.36621094 C-0.78523049 24.50462968 -0.68127467 22.25497256 -0.5859375 19.140625 C-0.54726562 18.02558594 -0.50859375 16.91054688 -0.46875 15.76171875 C-0.4378125 14.60285156 -0.406875 13.44398438 -0.375 12.25 C-0.33632812 11.07566406 -0.29765625 9.90132813 -0.2578125 8.69140625 C-0.1636018 5.79442732 -0.07798398 2.89745374 0 0 Z " fill="#05092B" transform="translate(214,251)"/>
<path d="M0 0 C4.59306496 1.4859916 7.43569245 3.85014682 11 7 C10.67 7.66 10.34 8.32 10 9 C5.57238086 7.60846256 3.0443745 5.47928514 0 2 C0 1.34 0 0.68 0 0 Z " fill="#F57289" transform="translate(182,185)"/>
<path d="M0 0 C1.32 0.33 2.64 0.66 4 1 C-1.29539436 4.72561343 -6.59068096 8.44123747 -12 12 C-11.34 10.68 -10.68 9.36 -10 8 C-9.34 8 -8.68 8 -8 8 C-8 7.34 -8 6.68 -8 6 C-3.61538462 3 -3.61538462 3 -1 3 C-0.67 2.01 -0.34 1.02 0 0 Z " fill="#D62155" transform="translate(162,267)"/>
<path d="M0 0 C-0.33 1.32 -0.66 2.64 -1 4 C-3.97 4 -6.94 4 -10 4 C-9 2 -9 2 -6.6875 0.875 C-4 0 -4 0 0 0 Z " fill="#D61778" transform="translate(87,321)"/>
<path d="M0 0 C3.67420866 0.30618405 4.78135513 0.75771784 7.3125 3.5625 C8.1478125 4.7690625 8.1478125 4.7690625 9 6 C8.01 6.66 7.02 7.32 6 8 C1.125 3.375 1.125 3.375 0 0 Z " fill="#E1717C" transform="translate(200,198)"/>
<path d="M0 0 C-1 3 -1 3 -3.28515625 4.16796875 C-4.20167969 4.50441406 -5.11820313 4.84085938 -6.0625 5.1875 C-7.44115234 5.70376953 -7.44115234 5.70376953 -8.84765625 6.23046875 C-9.55792969 6.48441406 -10.26820313 6.73835937 -11 7 C-9.84826645 4.53199953 -8.95216435 2.95216435 -7 1 C-4.60938484 0.40234621 -2.46474039 0 0 0 Z " fill="#F23959" transform="translate(191,247)"/>
<path d="M0 0 C3.11373372 1.49920512 6.12228205 3.08152136 9 5 C9 5.66 9 6.32 9 7 C10.32 7.66 11.64 8.32 13 9 C9.79604584 9 7.90600261 8.25664978 5 7 C5 6.34 5 5.68 5 5 C4.01 4.67 3.02 4.34 2 4 C0.8125 1.9375 0.8125 1.9375 0 0 Z " fill="#F24C7A" transform="translate(167,176)"/>
<path d="M0 0 C3.63 0 7.26 0 11 0 C10.67 0.66 10.34 1.32 10 2 C7.27734375 2.6328125 7.27734375 2.6328125 3.9375 3.125 C2.83277344 3.29257813 1.72804688 3.46015625 0.58984375 3.6328125 C-0.69212891 3.81457031 -0.69212891 3.81457031 -2 4 C-1.34 2.68 -0.68 1.36 0 0 Z " fill="#F062AD" transform="translate(71,110)"/>
<path d="M0 0 C-2.86931716 2.33796213 -5.55896672 3.67652566 -9 5 C-9.99 5.66 -10.98 6.32 -12 7 C-12 6.01 -12 5.02 -12 4 C-8.94009535 1.05778399 -4.10358555 -2.05179278 0 0 Z " fill="#B41855" transform="translate(132,293)"/>
<path d="M0 0 C0.2475 0.61875 0.495 1.2375 0.75 1.875 C2.20628639 4.35068687 3.37812506 4.95125002 6 6 C1.25 9 1.25 9 -1 9 C-1.125 2.25 -1.125 2.25 0 0 Z " fill="#1069BF" transform="translate(271,230)"/>
<path d="M0 0 C0.78375 0.185625 1.5675 0.37125 2.375 0.5625 C4.97089775 1.25962266 4.97089775 1.25962266 7 0 C7.33 0.99 7.66 1.98 8 3 C7.34 3 6.68 3 6 3 C5.67 3.99 5.34 4.98 5 6 C4.01 6 3.02 6 2 6 C2 4.68 2 3.36 2 2 C1.34 2 0.68 2 0 2 C0 1.34 0 0.68 0 0 Z " fill="#E74895" transform="translate(105,130)"/>
<path d="M0 0 C2 1.8125 2 1.8125 4 4 C4 4.99 4 5.98 4 7 C2.35 7 0.7 7 -1 7 C-1.33 5.35 -1.66 3.7 -2 2 C-1.34 2 -0.68 2 0 2 C0 1.34 0 0.68 0 0 Z " fill="#EE5A62" transform="translate(215,209)"/>
<path d="M0 0 C0.2475 0.639375 0.495 1.27875 0.75 1.9375 C1.81562433 4.18741541 1.81562433 4.18741541 4.125 4.75 C4.74375 4.8325 5.3625 4.915 6 5 C6 5.99 6 6.98 6 8 C1.56541027 6.6062718 -0.87378374 4.39417765 -4 1 C-2.68 0.67 -1.36 0.34 0 0 Z " fill="#104FA0" transform="translate(197,176)"/>
<path d="M0 0 C0.66 0.33 1.32 0.66 2 1 C1.01 2.98 0.02 4.96 -1 7 C-1.99 6.67 -2.98 6.34 -4 6 C-4 6.66 -4 7.32 -4 8 C-4.66 8 -5.32 8 -6 8 C-5.67 6.68 -5.34 5.36 -5 4 C-4.34 4 -3.68 4 -3 4 C-3 3.34 -3 2.68 -3 2 C-2.01 1.34 -1.02 0.68 0 0 Z " fill="#C4347E" transform="translate(69,110)"/>
<path d="M0 0 C1.4540625 0.0309375 1.4540625 0.0309375 2.9375 0.0625 C3.2675 1.7125 3.5975 3.3625 3.9375 5.0625 C-1.8125 3.3125 -1.8125 3.3125 -4.0625 1.0625 C-3.0625 0.0625 -3.0625 0.0625 0 0 Z " fill="#EC1A89" transform="translate(73.0625,319.9375)"/>
<path d="M0 0 C0.33 0 0.66 0 1 0 C1.3125 2.75 1.3125 2.75 1 6 C-1.5 8.375 -1.5 8.375 -4 10 C-4 9.01 -4 8.02 -4 7 C-3.34 7 -2.68 7 -2 7 C-2.33 6.01 -2.66 5.02 -3 4 C-2.34 4 -1.68 4 -1 4 C-0.67 2.68 -0.34 1.36 0 0 Z " fill="#E5424F" transform="translate(217,224)"/>
<path d="M0 0 C2.5 1.375 2.5 1.375 5 3 C5 3.66 5 4.32 5 5 C6.32 5.33 7.64 5.66 9 6 C9 6.66 9 7.32 9 8 C4.75153925 7.52794881 2.73180712 5.11122478 0 2 C0 1.34 0 0.68 0 0 Z " fill="#E84397" transform="translate(95,122)"/>
<path d="M0 0 C3.37462715 0.54723683 5.08235 1.0549 8 3 C8 3.66 8 4.32 8 5 C8.66 5.33 9.32 5.66 10 6 C6.00452264 5.38531118 3.22493358 3.34540624 0 1 C0 0.67 0 0.34 0 0 Z " fill="#104395" transform="translate(205,186)"/>
<path d="M0 0 C6.52307692 -0.36923077 6.52307692 -0.36923077 8.9375 1.5 C9.288125 1.995 9.63875 2.49 10 3 C9.67 3.66 9.34 4.32 9 5 C8.34 5 7.68 5 7 5 C6.67 4.34 6.34 3.68 6 3 C2.97065509 2.34227572 2.97065509 2.34227572 0 2 C0 1.34 0 0.68 0 0 Z " fill="#EB4F8C" transform="translate(141,158)"/>
<path d="M0 0 C-1.65 1.32 -3.3 2.64 -5 4 C-5.66 3.67 -6.32 3.34 -7 3 C-7 2.01 -7 1.02 -7 0 C-3.98968256 -0.93423645 -3.13349732 -1.04449911 0 0 Z " fill="#D12D43" transform="translate(197,246)"/>
<path d="M0 0 C0.99 0.33 1.98 0.66 3 1 C3.6875 3.0625 3.6875 3.0625 4 5 C2.35 4.67 0.7 4.34 -1 4 C-0.67 2.68 -0.34 1.36 0 0 Z " fill="#1777D4" transform="translate(199,176)"/>
<path d="M0 0 C4.24822374 0.47202486 6.19989709 2.96655518 9 6 C4.64464931 4.83857315 2.35380297 3.92300495 0 0 Z " fill="#F56C93" transform="translate(168,175)"/>
<path d="M0 0 C2.66666667 1.33333333 5.33333333 2.66666667 8 4 C8 4.66 8 5.32 8 6 C2.33846154 4.52307692 2.33846154 4.52307692 0.625 1.875 C0.41875 1.25625 0.2125 0.6375 0 0 Z " fill="#E9409A" transform="translate(81,113)"/>
</svg>
